# AST/ASF file generated using VICON BodyLanguage
# -----------------------------------------------
:version 1.10
:name VICON
:units
  mass 1.0
  length 0.45
  angle deg
:documentation
   .ast/.asf automatically generated from VICON data using
   VICON BodyBuilder and BodyLanguage model FoxedUp or BRILLIANT.MOD
:root
   order TX TY TZ RX RY RZ
   axis XYZ
   position 0 0 0  
   orientation 0 0 0 
:bonedata
  begin
     id 1 
     name lhipjoint
     direction 0.702568 -0.596508 0.388042 
     length 2.56661 
     axis 0 0 0  XYZ
  end
  begin
     id 2 
     name lfemur
     direction 0.34202 -0.939693 0  
     length 6.58374  
     axis 0 0 20  XYZ
    dof rx ry rz
    limits (-160.0 20.0)
           (-70.0 70.0)
           (-60.0 70.0)
  end
  begin
     id 3 
     name ltibia
     direction 0.34202 -0.939693 0   
     length 6.62538   
     axis 0 0 20   XYZ
    dof rx
    limits (-10.0 170.0)
  end
  begin
     id 4 
     name lfoot
     direction 0.10455 -0.287249 0.952133   
     length 2.26699   
     axis -90 7.62852e-016 20   XYZ
    dof rx rz
    limits (-45.0 90.0)
           (-70.0 20.0)
  end
  begin
     id 5 
     name ltoes
     direction 1.53572e-011 -4.22322e-011 1   
     length 1.12949   
     axis -90 7.62852e-016 20   XYZ
    dof rx
    limits (-90.0 20.0)
  end
  begin
     id 6 
     name rhipjoint
     direction -0.728055 -0.574632 0.373811   
     length 2.66432  
     axis 0 0 0  XYZ 
  end
  begin
     id 7 
     name rfemur
     direction -0.34202 -0.939693 0   
     length 6.66732   
     axis 0 0 -20   XYZ
    dof rx ry rz
    limits (-160.0 20.0)
           (-70.0 70.0)
           (-70.0 60.0)
  end
  begin
     id 8 
     name rtibia
     direction -0.34202 -0.939693 0   
     length 6.59288   
     axis 0 0 -20   XYZ
    dof rx
    limits (-10.0 170.0)
 end
 begin
     id 9 
     name rfoot
     direction -0.119193 -0.327479 0.93731   
     length 2.38061  
     axis -90 -7.62852e-016 -20   XYZ
    dof rx rz
    limits (-45.0 90.0)
           (-20.0 70.0)
  end
  begin
     id 10 
     name rtoes
     direction -1.53547e-011 -4.21827e-011 1   
     length 1.17899   
     axis -90 -7.62852e-016 -20   XYZ
    dof rx
    limits (-90.0 20.0)
  end
  begin
     id 11 
     name lowerback
     direction -0.000416114 0.999912 -0.0132284   
     length 2.12109   
     axis 0 0 0   XYZ
    dof rx ry rz
    limits (-20.0 45.0)
           (-30.0 30.0)
           (-30.0 30.0)
  end
  begin
     id 12 
     name upperback
     direction -0.00136371 0.99809 0.0617608   
     length 2.10067   
     axis 0 0 0   XYZ
    dof rx ry rz
    limits (-20.0 45.0)
           (-30.0 30.0)
           (-30.0 30.0)
  end
  begin
     id 13 
     name thorax
     direction -3.43026e-005 0.997776 0.0666515   
     length 2.10618   
     axis 0 0 0   XYZ
    dof rx ry rz
    limits (-20.0 45.0)
           (-30.0 30.0)
           (-30.0 30.0)
  end
  begin
     id 14 
     name lowerneck
     direction 0.0398646 0.998418 0.0396592   
     length 1.83817   
     axis 0 0 0   XYZ
    dof rx ry rz
    limits (-20.0 45.0)
           (-30.0 30.0)
           (-30.0 30.0)
  end
  begin
     id 15 
     name upperneck
     direction -0.0367268 0.961527 -0.272244   
     length 1.81975   
     axis 0 0 0   XYZ
    dof rx ry rz
    limits (-20.0 45.0)
           (-30.0 30.0)
           (-30.0 30.0)
  end
  begin
     id 16
     name head
     direction -0.0182665 0.99536 -0.0944669  
     length 1.86026  
     axis 0 0 0   XYZ
    dof rx ry rz
    limits (-20.0 45.0)
           (-30.0 30.0)
           (-30.0 30.0)
  end
  begin
     id 17 
     name lclavicle
     direction 0.924239 0.361045 0.124212  
     length 3.26878  
     axis 0 0 0   XYZ
    dof ry rz
    limits (-20.0 10.0)
           (0.0 20.0)
  end
  begin
     id 18 
     name lhumerus
     direction 1 -4.48968e-011 -2.56583e-027   
     length 4.58538   
     axis 180 -30 -90   XYZ
    dof rx ry rz
    limits (-60.0 90.0)
           (-90.0 90.0)
           (-90.0 90.0)
  end
  begin
     id 19
     name lradius
     direction 1 -4.4898e-011 -5.50375e-027   
     length 2.68935   
     axis 180 -30 -90   XYZ
    dof rx
    limits (-10.0 170.0)
  end
  begin
     id 20
     name lwrist
     direction 1 -4.48939e-011 -1.48955e-026   
     length 1.34468   
     axis 9.0955e-015 90 90   XYZ
    dof ry
    limits (-180.0 0.0)
 end
  begin
     id 21 
     name lhand
     direction 1 -4.48936e-011 -2.97907e-026   
     length 0.585058   
     axis 1.90115e-014 90 90   XYZ
    dof rx rz
    limits (-90.0 90.0)
           (-45.0 45.0)
  end
  begin
     id 22 
     name lfingers
     direction 1 -4.49082e-011 -5.96235e-026   
     length 0.471689   
     axis 3.80223e-014 90 90   XYZ
    dof rx
    limits (0.0 90.0)
  end
  begin
     id 23
     name lthumb
     direction 0.707107 -6.3489e-011 0.707107   
     length 0.677253   
     axis -90 45 -3.84942e-014   XYZ
    dof rx rz
    limits (-45.0 45.0)
           (-45.0 45.0)
  end
  begin
     id 24 
     name rclavicle
     direction -0.923098 0.371783 0.0983239   
     length 3.19656  
     axis 0 0 0   XYZ 
    dof ry rz
    limits (-10.0 20.0)
           (-20.0 0.0)
  end
  begin
     id 25 
     name rhumerus
     direction -1 -4.48976e-011 -2.5492e-027  
     length 4.4745   
     axis 180 30 90   XYZ
    dof rx ry rz
    limits (-90.0 60.0)
           (-90.0 90.0)
           (-90.0 90.0)
  end
  begin
     id 26 
     name rradius
     direction -1 -4.48941e-011 -4.36555e-027   
     length 2.93896   
     axis 180 30 90   XYZ
    dof rx
    limits (-10.0 170.0)
  end
  begin
     id 27 
     name rwrist
     direction -1 -4.49044e-011 -1.49032e-026   
     length 1.46948   
     axis 9.0955e-015 -90 -90   XYZ
    dof ry
    limits (-180.0 0.0)
  end
  begin
     id 28
     name rhand
     direction -1 -4.48826e-011 -2.97749e-026   
     length 0.405092   
     axis 1.90115e-014 -90 -90   XYZ
    dof rx rz
    limits (-90.0 90.0)
           (-45.0 45.0)
  end
  begin
     id 29
     name rfingers
     direction -1 -4.49209e-011 -5.96602e-026   
     length 0.326596   
     axis 3.80223e-014 -90 -90   XYZ
    dof rx
    limits (0.0 90.0)
  end
  begin
     id 30
     name rthumb
     direction -0.707107 -6.34776e-011 0.707107   
     length 0.468928   
     axis -90 -45 3.84942e-014   XYZ
    dof rx rz
    limits (-45.0 45.0)
           (-45.0 45.0)
  end
:hierarchy
  begin
    root lhipjoint rhipjoint lowerback
    lhipjoint lfemur
    lfemur ltibia
    ltibia lfoot
    lfoot ltoes
    rhipjoint rfemur
    rfemur rtibia
    rtibia rfoot
    rfoot rtoes
    lowerback upperback
    upperback thorax
    thorax lowerneck lclavicle rclavicle
    lowerneck upperneck
    upperneck head
    lclavicle lhumerus
    lhumerus lradius
    lradius lwrist
    lwrist lhand lthumb
    lhand lfingers
    rclavicle rhumerus
    rhumerus rradius
    rradius rwrist
    rwrist rhand rthumb
    rhand rfingers
  end

#!OML:ASF H:\Punching\Project 1\Capture day 1\Session 1\female.ASF
:FULLY-SPECIFIED
:DEGREES
183
root -2.00304 15.0798 6.07943 11.0039 43.3269 -1.25291
lowerback 1.7085 -0.467144 4.24531
upperback -5.63292 -0.425402 -1.10151
thorax -6.88557 -0.459747 -3.50411
lowerneck -4.07864 -5.71939 1.50535
upperneck 19.2558 -8.36963 2.87555
head 6.59508 -3.63797 0.102831
rclavicle 1.71781e-013 3.77691e-015
rhumerus 6.38517 16.4031 -77.0495
rradius 139.83
rwrist -38.9887
rhand -26.2932 -1.89039
rfingers 7.12502
rthumb 0.262572 -31.87
lclavicle 1.71781e-013 3.77691e-015
lhumerus 5.07539 -41.9697 83.7763
lradius 143.671
lwrist 28.0121
lhand -24.0106 18.0155
lfingers 7.12502
lthumb 2.46713 47.981
rfemur -31.4715 -20.9417 17.2875
rtibia 46.8142
rfoot -19.0989 -20.6811
rtoes -4.03243
lfemur -20.3758 -10.2136 2.24898
ltibia 25.5042
lfoot -16.3482 3.13784
ltoes -18.6272
184
root -1.99891 15.0465 6.07816 10.9976 43.5669 -1.15936
lowerback 1.85551 -0.402702 4.14162
upperback -5.64442 -0.336037 -1.07134
thorax -6.97244 -0.410967 -3.42083
lowerneck -4.12428 -5.81695 1.46698
upperneck 19.4682 -8.52112 2.9534
head 6.67823 -3.69816 0.118316
rclavicle 6.66985e-014 2.26615e-014
rhumerus 6.3529 16.3505 -76.8961
rradius 139.812
rwrist -38.9749
rhand -26.2434 -1.88632
rfingers 7.12502
rthumb 0.310636 -31.8658
lclavicle 6.66985e-014 2.26615e-014
lhumerus 5.44045 -42.3102 83.6232
lradius 143.694
lwrist 27.7056
lhand -24.0462 18.1388
lfingers 7.12502
lthumb 2.43275 48.1047
rfemur -31.7348 -21.2973 17.1775
rtibia 47.5665
rfoot -19.3931 -20.6091
rtoes -4.27962
lfemur -20.7212 -10.0152 2.13487
ltibia 26.1082
lfoot -16.8298 2.88757
ltoes -18.8983
185
root -1.99593 15.0167 6.078 11.0648 43.7198 -0.998673
lowerback 1.96778 -0.336103 3.96076
upperback -5.65432 -0.250209 -1.04746
thorax -7.03707 -0.359221 -3.30077
lowerneck -4.17328 -5.88763 1.45097
upperneck 19.6618 -8.63352 3.00644
head 6.7537 -3.74048 0.125171
rclavicle -2.64787e-014 -1.07344e-014
rhumerus 6.34312 16.3406 -76.7597
rradius 139.767
rwrist -38.9148
rhand -26.2015 -1.89562
rfingers 7.12502
rthumb 0.351105 -31.8751
lclavicle -2.64787e-014 -1.07344e-014
lhumerus 5.85131 -42.6068 83.3876
lradius 143.698
lwrist 27.3207
lhand -24.0473 18.2605
lfingers 7.12502
lthumb 2.4317 48.2264
rfemur -32.0239 -21.5413 17.0244
rtibia 48.2759
rfoot -19.6577 -20.5708
rtoes -4.49691
lfemur -21.015 -9.80596 1.97907
ltibia 26.6307
lfoot -17.2317 2.65125
ltoes -19.1971
186
root -1.99372 14.9911 6.07895 11.2036 43.7656 -0.779889
lowerback 2.03225 -0.27247 3.69623
upperback -5.65189 -0.175043 -1.01265
thorax -7.06101 -0.306593 -3.12137
lowerneck -4.2537 -5.91935 1.44042
upperneck 19.832 -8.68814 3.02687
head 6.82485 -3.75783 0.124105
rclavicle 1.80739e-014 -1.39149e-015
rhumerus 6.38407 16.4055 -76.6315
rradius 139.698
rwrist -38.8436
rhand -26.15 -1.9312
rfingers 7.12502
rthumb 0.400865 -31.9106
lclavicle 1.80739e-014 -1.39149e-015
lhumerus 6.32739 -42.8161 83.0739
lradius 143.679
lwrist 26.8866
lhand -23.9866 18.3804
lfingers 7.12502
lthumb 2.49028 48.3456
rfemur -32.3408 -21.6562 16.8362
rtibia 48.9293
rfoot -19.889 -20.5624
rtoes -4.6698
lfemur -21.2441 -9.5723 1.78342
ltibia 27.0601
lfoot -17.5551 2.43581
ltoes -19.5058
187
root -1.99182 14.9701 6.08092 11.4032 43.6811 -0.518149
lowerback 2.04579 -0.205308 3.36353
upperback -5.63895 -0.100905 -0.970157
thorax -7.04427 -0.249472 -2.89545
lowerneck -4.3494 -5.91348 1.44086
upperneck 19.9715 -8.68649 3.01598
head 6.88624 -3.75105 0.115296
rclavicle 3.58247e-014 1.47101e-014
rhumerus 6.46002 16.5363 -76.5241
rradius 139.619
rwrist -38.8026
rhand -26.0793 -1.98197
rfingers 7.12502
rthumb 0.469202 -31.9612
lclavicle 3.58247e-014 1.47101e-014
lhumerus 6.85074 -42.9339 82.6998
lradius 143.646
lwrist 26.4466
lhand -23.8475 18.507
lfingers 7.12502
lthumb 2.62464 48.4706
rfemur -32.6823 -21.622 16.6214
rtibia 49.5132
rfoot -20.081 -20.578
rtoes -4.7907
lfemur -21.3868 -9.29685 1.54859
ltibia 27.3838
lfoot -17.8058 2.26261
ltoes -19.8
188
root -1.98957 14.9539 6.0838 11.6426 43.4416 -0.23194
lowerback 2.03416 -0.126822 3.00174
upperback -5.62802 -0.0146175 -0.937892
thorax -7.01531 -0.18497 -2.66497
lowerneck -4.45335 -5.87418 1.46808
upperneck 20.0964 -8.63695 2.97771
head 6.94148 -3.72229 0.0969341
rclavicle 4.36053e-014 -1.28216e-014
rhumerus 6.52308 16.7184 -76.4725
rradius 139.548
rwrist -38.823
rhand -25.9927 -2.04099
rfingers 7.12502
rthumb 0.552793 -32.02
lclavicle 4.36053e-014 -1.28216e-014
lhumerus 7.37254 -42.9692 82.281
lradius 143.61
lwrist 26.0413
lhand -23.6389 18.6249
lfingers 7.12502
lthumb 2.82606 48.586
rfemur -33.0367 -21.4198 16.3845
rtibia 50.0124
rfoot -20.2343 -20.6034
rtoes -4.83913
lfemur -21.4123 -8.97119 1.27531
ltibia 27.588
lfoot -17.9949 2.16133
ltoes -20.0599
189
root -1.9863 14.9428 6.08749 11.9006 43.0285 0.0664051
lowerback 2.00307 -0.0366098 2.62193
upperback -5.61439 0.0852656 -0.916323
thorax -6.9728 -0.113031 -2.43663
lowerneck -4.57049 -5.79844 1.5286
upperneck 20.2157 -8.53552 2.90572
head 6.99377 -3.66942 0.0659972
rclavicle 3.20416e-014 1.67973e-014
rhumerus 6.58157 16.9495 -76.4751
rradius 139.492
rwrist -38.9311
rhand -25.8925 -2.09374
rfingers 7.12502
rthumb 0.649559 -32.0725
lclavicle 3.20416e-014 1.67973e-014
lhumerus 7.87921 -42.9104 81.8226
lradius 143.576
lwrist 25.6884
lhand -23.393 18.7292
lfingers 7.12502
lthumb 3.06354 48.6869
rfemur -33.3872 -21.0428 16.1229
rtibia 50.4145
rfoot -20.3421 -20.6239
rtoes -4.81487
lfemur -21.2862 -8.5976 0.959469
ltibia 27.6568
lfoot -18.1346 2.1666
ltoes -20.2588
190
root -1.98101 14.9369 6.09214 12.1518 42.4336 0.364559
lowerback 1.96122 0.0674249 2.2423
upperback -5.59495 0.202743 -0.908975
thorax -6.9187 -0.0329032 -2.22456
lowerneck -4.70802 -5.68731 1.62117
upperneck 20.3462 -8.38498 2.80236
head 7.05028 -3.59305 0.022755
rclavicle -1.9661e-015 1.11319e-014
rhumerus 6.63758 17.2018 -76.5209
rradius 139.445
rwrist -39.1409
rhand -25.7897 -2.14558
rfingers 7.12502
rthumb 0.748872 -32.124
lclavicle -1.9661e-015 1.11319e-014
lhumerus 8.34637 -42.759 81.3421
lradius 143.547
lwrist 25.3857
lhand -23.1495 18.823
lfingers 7.12502
lthumb 3.29873 48.7772
rfemur -33.7084 -20.5006 15.8334
rtibia 50.7081
rfoot -20.4023 -20.6221
rtoes -4.7353
lfemur -20.9759 -8.19026 0.600205
ltibia 27.578
lfoot -18.2407 2.30348
ltoes -20.3925
191
root -1.97336 14.9362 6.09762 12.3791 41.6455 0.651499
lowerback 1.91363 0.194471 1.88282
upperback -5.57258 0.350823 -0.92878
thorax -6.85859 0.0602263 -2.05442
lowerneck -4.84882 -5.54915 1.76007
upperneck 20.494 -8.19881 2.6727
head 7.11011 -3.49811 -0.0339464
rclavicle 6.18267e-014 2.88238e-014
rhumerus 6.67012 17.4564 -76.6155
rradius 139.411
rwrist -39.4213
rhand -25.6916 -2.17364
rfingers 7.12502
rthumb 0.84365 -32.1517
lclavicle 6.18267e-014 2.88238e-014
lhumerus 8.7643 -42.5388 80.8461
lradius 143.516
lwrist 25.1214
lhand -22.9562 18.9118
lfingers 7.12502
lthumb 3.48544 48.863
rfemur -33.9945 -19.7938 15.518
rtibia 50.8889
rfoot -20.4071 -20.5873
rtoes -4.61817
lfemur -20.4625 -7.76169 0.201608
ltibia 27.3446
lfoot -18.3218 2.59029
ltoes -20.4703
192
root -1.96326 14.9405 6.10369 12.5676 40.6688 0.907804
lowerback 1.85428 0.332642 1.54268
upperback -5.53808 0.514596 -0.953864
thorax -6.78007 0.15986 -1.90134
lowerneck -5.01898 -5.37304 1.92968
upperneck 20.6688 -7.96018 2.50739
head 7.1815 -3.37804 -0.104331
rclavicle 6.91755e-014 -1.93815e-015
rhumerus 6.72076 17.7398 -76.7318
rradius 139.369
rwrist -39.7298
rhand -25.5971 -2.19459
rfingers 7.12502
rthumb 0.9349 -32.1723
lclavicle 6.91755e-014 -1.93815e-015
lhumerus 9.1371 -42.2212 80.3405
lradius 143.469
lwrist 24.8573
lhand -22.8437 19.0025
lfingers 7.12502
lthumb 3.59403 48.9519
rfemur -34.2468 -18.939 15.1943
rtibia 50.9557
rfoot -20.3431 -20.5177
rtoes -4.5082
lfemur -19.7505 -7.32415 -0.219207
ltibia 26.9595
lfoot -18.3843 3.02765
ltoes -20.5259
193
root -1.95089 14.9495 6.10993 12.721 39.5136 1.12635
lowerback 1.77454 0.485507 1.24027
upperback -5.49961 0.699418 -0.996012
thorax -6.6864 0.267234 -1.78811
lowerneck -5.19157 -5.16671 2.14691
upperneck 20.8665 -7.682 2.31564
head 7.25878 -3.23741 -0.188178
rclavicle -2.84479e-014 5.56597e-015
rhumerus 6.76815 18.0439 -76.8814
rradius 139.308
rwrist -39.9878
rhand -25.516 -2.2023
rfingers 7.12502
rthumb 1.01317 -32.1796
lclavicle -2.84479e-014 5.56597e-015
lhumerus 9.46854 -41.8316 79.8272
lradius 143.398
lwrist 24.5821
lhand -22.8253 19.1133
lfingers 7.12502
lthumb 3.6118 49.0625
rfemur -34.4825 -17.957 14.8754
rtibia 50.9149
rfoot -20.202 -20.4108
rtoes -4.43743
lfemur -18.8653 -6.88684 -0.6509
ltibia 26.4347
lfoot -18.4282 3.60071
ltoes -20.5867
194
root -1.93667 14.9625 6.11582 12.8455 38.1888 1.29447
lowerback 1.67709 0.642279 0.985836
upperback -5.46259 0.892004 -1.04685
thorax -6.58508 0.375436 -1.71057
lowerneck -5.38627 -4.92092 2.40641
upperneck 21.0969 -7.35218 2.0963
head 7.34947 -3.07052 -0.284842
rclavicle -8.04146e-015 8.44835e-015
rhumerus 6.82781 18.3975 -77.066
rradius 139.21
rwrist -40.1343
rhand -25.4319 -2.1976
rfingers 7.12502
rthumb 1.09441 -32.1745
lclavicle -8.04146e-015 8.44835e-015
lhumerus 9.76944 -41.3432 79.2978
lradius 143.294
lwrist 24.2941
lhand -22.8919 19.2544
lfingers 7.12502
lthumb 3.54746 49.2046
rfemur -34.7274 -16.8599 14.5799
rtibia 50.7742
rfoot -19.979 -20.2662
rtoes -4.40987
lfemur -17.8434 -6.45615 -1.07571
ltibia 25.7875
lfoot -18.4464 4.29502
ltoes -20.6858
195
root -1.92126 14.979 6.12111 12.9555 36.7039 1.40902
lowerback 1.56342 0.799457 0.783138
upperback -5.44244 1.08786 -1.1089
thorax -6.49287 0.481929 -1.6732
lowerneck -5.58324 -4.63397 2.71737
upperneck 21.3601 -6.96933 1.85326
head 7.45082 -2.87589 -0.393805
rclavicle -1.15572e-013 -7.60351e-015
rhumerus 6.88533 18.8028 -77.295
rradius 139.066
rwrist -40.1273
rhand -25.3425 -2.1859
rfingers 7.12502
rthumb 1.18075 -32.1624
lclavicle -1.15572e-013 -7.60351e-015
lhumerus 10.0366 -40.7529 78.7548
lradius 143.16
lwrist 24.0151
lhand -23.0078 19.4487
lfingers 7.12502
lthumb 3.43555 49.4007
rfemur -35.0083 -15.658 14.3194
rtibia 50.5434
rfoot -19.6712 -20.0857
rtoes -4.42684
lfemur -16.7242 -6.03431 -1.48316
ltibia 25.0374
lfoot -18.4315 5.08925
ltoes -20.8284
196
root -1.9044 14.9985 6.12629 13.0667 35.0795 1.48566
lowerback 1.44387 0.953148 0.638079
upperback -5.45768 1.28127 -1.19735
thorax -6.43448 0.583069 -1.69522
lowerneck -5.7576 -4.30787 3.09723
upperneck 21.6626 -6.53806 1.59048
head 7.56122 -2.65397 -0.516394
rclavicle -5.9682e-014 -4.72114e-015
rhumerus 6.89802 19.2499 -77.5934
rradius 138.875
rwrist -39.9508
rhand -25.2408 -2.16633
rfingers 7.12502
rthumb 1.279 -32.1422
lclavicle -5.9682e-014 -4.72114e-015
lhumerus 10.2492 -40.0731 78.1967
lradius 143.008
lwrist 23.7887
lhand -23.1325 19.6993
lfingers 7.12502
lthumb 3.3151 49.6533
rfemur -35.3267 -14.3883 14.0818
rtibia 50.2298
rfoot -19.288 -19.8511
rtoes -4.47504
lfemur -15.5331 -5.63606 -1.88199
ltibia 24.2012
lfoot -18.373 5.95662
ltoes -21.0282
197
root -1.88602 15.0207 6.13151 13.1857 33.3264 1.52813
lowerback 1.31044 1.09209 0.535435
upperback -5.50255 1.45683 -1.29695
thorax -6.39937 0.672639 -1.75102
lowerneck -5.92239 -3.93196 3.53546
upperneck 22.005 -6.04125 1.29933
head 7.68466 -2.39807 -0.652816
rclavicle 1.27346e-014 1.00386e-014
rhumerus 6.88787 19.7664 -77.9471
rradius 138.644
rwrist -39.6342
rhand -25.1351 -2.16078
rfingers 7.12502
rthumb 1.38108 -32.1361
lclavicle 1.27346e-014 1.00386e-014
lhumerus 10.4238 -39.2693 77.6142
lradius 142.847
lwrist 23.6513
lhand -23.2389 19.9976
lfingers 7.12502
lthumb 3.21236 49.9531
rfemur -35.6877 -13.0704 13.8642
rtibia 49.8399
rfoot -18.8349 -19.5511
rtoes -4.54208
lfemur -14.2868 -5.26984 -2.27255
ltibia 23.2911
lfoot -18.2686 6.877
ltoes -21.2887
